<svg height="30" viewBox="0 0 7.9374991 7.9375032" width="30" xmlns="http://www.w3.org/2000/svg"><path d="m1.6285682.45845918a1.1700987 1.1700987 0 0 0 -1.17011233 1.17008252v2.3402246 2.3401947a1.1700987 1.1700987 0 0 0 1.17011233 1.1700825h2.3401947.0051 2.335091a1.1700987 1.1700987 0 0 0 1.1700824-1.1700825 1.1700987 1.1700987 0 0 0 0-.00513v-2.335061a1.1700987 1.1700987 0 0 0 0-.00513v-2.3350983a1.1700987 1.1700987 0 0 0 -1.1700786-1.17008252h-.00513-2.335061-.00513-2.3299571a1.1700987 1.1700987 0 0 0 -.0051 0z" fill="none" opacity=".998204" stroke="#dbdbe3" stroke-width=".916916"/><path d="m3.9687474 1.6573199c-.426847 0-.770688.3438408-.770688.770688v.7706878h-.770054c-.4268472 0-.770688.3432074-.770688.7700543 0 .4268472.3438408.770688.770688.770688h.770054v.770688c0 .4268472.343841.7700541.770688.7700541.4268473 0 .770688-.3432069.770688-.7700541v-.770688h.7700542c.4268473 0 .770688-.3438408.770688-.770688 0-.4268469-.3438407-.7700543-.770688-.7700543h-.7700542v-.7706878c0-.4268472-.3438407-.770688-.770688-.770688z" fill="#dbdbe3" opacity=".998204"/></svg>