<?xml version="1.0" encoding="UTF-8" standalone="no"?>
<svg
   width="30"
   height="30"
   viewBox="0 0 7.9374991 7.9375002"
   version="1.1"
   id="svg8"
   inkscape:version="1.1 (c68e22c387, 2021-05-23)"
   sodipodi:docname="Paint_Active.svg"
   xmlns:inkscape="http://www.inkscape.org/namespaces/inkscape"
   xmlns:sodipodi="http://sodipodi.sourceforge.net/DTD/sodipodi-0.dtd"
   xmlns="http://www.w3.org/2000/svg"
   xmlns:svg="http://www.w3.org/2000/svg"
   xmlns:rdf="http://www.w3.org/1999/02/22-rdf-syntax-ns#"
   xmlns:cc="http://creativecommons.org/ns#"
   xmlns:dc="http://purl.org/dc/elements/1.1/">
  <defs
     id="defs2" />
  <sodipodi:namedview
     id="base"
     pagecolor="#686868"
     bordercolor="#666666"
     borderopacity="1.0"
     inkscape:pageopacity="0"
     inkscape:pageshadow="2"
     inkscape:zoom="16"
     inkscape:cx="11.59375"
     inkscape:cy="16.40625"
     inkscape:document-units="px"
     inkscape:current-layer="g17214"
     inkscape:document-rotation="0"
     showgrid="false"
     units="px"
     inkscape:snap-bbox="true"
     inkscape:snap-bbox-edge-midpoints="true"
     inkscape:bbox-paths="true"
     inkscape:bbox-nodes="true"
     inkscape:snap-bbox-midpoints="true"
     showguides="false"
     inkscape:window-width="1920"
     inkscape:window-height="1010"
     inkscape:window-x="0"
     inkscape:window-y="0"
     inkscape:window-maximized="1"
     inkscape:snap-global="true"
     inkscape:pagecheckerboard="0" />
  <metadata
     id="metadata5">
    <rdf:RDF>
      <cc:Work
         rdf:about="">
        <dc:format>image/svg+xml</dc:format>
        <dc:type
           rdf:resource="http://purl.org/dc/dcmitype/StillImage" />
      </cc:Work>
    </rdf:RDF>
  </metadata>
  <g
     inkscape:label="Layer 1"
     inkscape:groupmode="layer"
     id="layer1">
    <path
       id="path901"
       style="opacity:0.998204;fill:none;stroke:#dbdbe3;stroke-width:0.916916;stroke-opacity:1"
       d="M 1.6285682,0.45845918 A 1.1700987,1.1700987 0 0 0 0.45845587,1.6285417 V 3.9687663 6.308961 A 1.1700987,1.1700987 0 0 0 1.6285682,7.4790435 h 2.3401947 0.0051 2.335091 a 1.1700987,1.1700987 0 0 0 1.1700824,-1.1700825 1.1700987,1.1700987 0 0 0 0,-0.00513 V 3.96877 a 1.1700987,1.1700987 0 0 0 0,-0.00513 V 1.6285417 A 1.1700987,1.1700987 0 0 0 6.3089577,0.45845918 h -0.00513 -2.335061 -0.00513 -2.3299571 a 1.1700987,1.1700987 0 0 0 -0.0051,0 z" />
    <g
       id="g17214"
       transform="matrix(-0.60655033,-0.60655033,0.60655033,-0.60655033,-1.5818164,2.8420692)"
       style="fill:#dbdbe3;fill-opacity:1">
      <g
         id="g29110"
         transform="rotate(45,-9.3848028,-7.1009229)">
        <rect
           style="fill:#dbdbe3;stroke:#dbdbe3;stroke-width:0.308447"
           id="rect27869"
           width="1.090525"
           height="4.3621001"
           x="-2.8101482"
           y="-1.2490313"
           transform="rotate(135)" />
        <rect
           style="fill:#dbdbe3;stroke:#dbdbe3;stroke-width:0.0963691"
           id="rect27871"
           width="1.283059"
           height="0.36190876"
           x="-2.9064152"
           y="-2.0404618"
           transform="rotate(135)" />
        <path
           sodipodi:type="star"
           style="fill:#dbdbe3;stroke:#dbdbe3"
           id="path27975"
           inkscape:flatsided="false"
           sodipodi:sides="3"
           sodipodi:cx="-14.079001"
           sodipodi:cy="25.885159"
           sodipodi:r1="3.5859082"
           sodipodi:r2="1.7929541"
           sodipodi:arg1="-0.52359878"
           sodipodi:arg2="0.52359878"
           inkscape:rounded="-3.46945e-18"
           inkscape:randomized="0"
           d="m -10.973514,24.092204 -1.552744,2.689432 -1.552743,2.689431 -1.552744,-2.689431 -1.552744,-2.689432 3.105488,0 z"
           transform="matrix(-0.12429373,0.12429373,-0.12429373,-0.12429373,0.32131671,0.61619351)"
           inkscape:transform-center-y="0.13517143" />
        <rect
           style="fill:#dbdbe3;stroke:none;stroke-width:0.710095"
           id="rect28202"
           width="1.379428"
           height="0.46152577"
           x="-2.9545999"
           y="-2.3194091"
           transform="rotate(135)"
           ry="0.23076288" />
      </g>
    </g>
  </g>
</svg>
