<?xml version="1.0" encoding="UTF-8" standalone="no"?>
<svg
   width="30"
   height="30"
   viewBox="0 0 7.9374991 7.9375002"
   version="1.1"
   id="svg8"
   inkscape:version="1.1 (c68e22c387, 2021-05-23)"
   sodipodi:docname="Paint_Inactive.svg"
   xmlns:inkscape="http://www.inkscape.org/namespaces/inkscape"
   xmlns:sodipodi="http://sodipodi.sourceforge.net/DTD/sodipodi-0.dtd"
   xmlns="http://www.w3.org/2000/svg"
   xmlns:svg="http://www.w3.org/2000/svg"
   xmlns:rdf="http://www.w3.org/1999/02/22-rdf-syntax-ns#"
   xmlns:cc="http://creativecommons.org/ns#"
   xmlns:dc="http://purl.org/dc/elements/1.1/">
  <defs
     id="defs2" />
  <sodipodi:namedview
     id="base"
     pagecolor="#686868"
     bordercolor="#666666"
     borderopacity="1.0"
     inkscape:pageopacity="0"
     inkscape:pageshadow="2"
     inkscape:zoom="16"
     inkscape:cx="11.59375"
     inkscape:cy="11.40625"
     inkscape:document-units="px"
     inkscape:current-layer="layer1"
     inkscape:document-rotation="0"
     showgrid="false"
     units="px"
     inkscape:snap-bbox="true"
     inkscape:snap-bbox-edge-midpoints="true"
     inkscape:bbox-paths="true"
     inkscape:bbox-nodes="true"
     inkscape:snap-bbox-midpoints="true"
     showguides="false"
     inkscape:window-width="1920"
     inkscape:window-height="1010"
     inkscape:window-x="0"
     inkscape:window-y="0"
     inkscape:window-maximized="1"
     inkscape:snap-global="true"
     inkscape:pagecheckerboard="0" />
  <metadata
     id="metadata5">
    <rdf:RDF>
      <cc:Work
         rdf:about="">
        <dc:format>image/svg+xml</dc:format>
        <dc:type
           rdf:resource="http://purl.org/dc/dcmitype/StillImage" />
      </cc:Work>
    </rdf:RDF>
  </metadata>
  <g
     inkscape:label="Layer 1"
     inkscape:groupmode="layer"
     id="layer1">
    <g
       id="g1128">
      <path
         id="path901"
         style="opacity:0.998204;fill:none;stroke:#9393ac;stroke-width:0.916916;stroke-opacity:1"
         d="M 1.6285682,0.45845918 A 1.1700987,1.1700987 0 0 0 0.45845587,1.6285417 V 3.9687663 6.308961 A 1.1700987,1.1700987 0 0 0 1.6285682,7.4790435 h 2.3401947 0.0051 2.335091 a 1.1700987,1.1700987 0 0 0 1.1700824,-1.1700825 1.1700987,1.1700987 0 0 0 0,-0.00513 V 3.96877 a 1.1700987,1.1700987 0 0 0 0,-0.00513 V 1.6285417 A 1.1700987,1.1700987 0 0 0 6.3089577,0.45845918 h -0.00513 -2.335061 -0.00513 -2.3299571 a 1.1700987,1.1700987 0 0 0 -0.0051,0 z" />
    </g>
    <rect
       style="fill:#9393ac;fill-opacity:1;stroke:#9393ac;stroke-width:0.264583"
       id="rect27869"
       width="0.93544334"
       height="3.7417734"
       x="-6.0797873"
       y="-1.8515623"
       transform="rotate(-135)" />
    <rect
       style="fill:#9393ac;fill-opacity:1;stroke:#9393ac;stroke-width:0.0826646"
       id="rect27871"
       width="1.1005974"
       height="0.31044233"
       x="-6.162364"
       y="-2.5304449"
       transform="rotate(-135)" />
    <path
       sodipodi:type="star"
       style="fill:#9393ac;stroke:#9393ac"
       id="path27975"
       inkscape:flatsided="false"
       sodipodi:sides="3"
       sodipodi:cx="-14.079001"
       sodipodi:cy="25.885159"
       sodipodi:r1="3.5859082"
       sodipodi:r2="1.7929541"
       sodipodi:arg1="-0.52359878"
       sodipodi:arg2="0.52359878"
       inkscape:rounded="-3.46945e-18"
       inkscape:randomized="0"
       transform="matrix(-0.10661813,-0.10661813,0.10661813,-0.10661813,1.5143448,3.4218371)"
       inkscape:transform-center-y="0.13517143"
       d="m -10.973514,24.092204 -1.552744,2.689432 -1.552743,2.689431 -1.552744,-2.689431 -1.552744,-2.689432 3.105488,0 z" />
    <rect
       style="fill:#9393ac;fill-opacity:1;stroke:none;stroke-width:0.609114"
       id="rect28202"
       width="1.1832619"
       height="0.39589298"
       x="-6.2036967"
       y="-2.7697234"
       transform="rotate(-135)"
       ry="0.19794649" />
  </g>
</svg>
