<svg height="30" viewBox="0 0 7.9374996 7.9375002" width="30" xmlns="http://www.w3.org/2000/svg"><g stroke="#9393ac"><path d="m1.6285682.45845918a1.1700987 1.1700987 0 0 0 -1.17011233 1.17008252v2.3402246 2.3401947a1.1700987 1.1700987 0 0 0 1.17011233 1.1700825h2.3401947.0051 2.335091a1.1700987 1.1700987 0 0 0 1.1700824-1.1700825 1.1700987 1.1700987 0 0 0 0-.00513v-2.335061a1.1700987 1.1700987 0 0 0 0-.00513v-2.3350983a1.1700987 1.1700987 0 0 0 -1.1700786-1.17008252h-.00513-2.335061-.00513-2.3299571a1.1700987 1.1700987 0 0 0 -.0051 0z" fill="none" opacity=".998204" stroke-width=".916916"/><path d="m2.4480506 5.856786v-1.8880358-1.8880357l1.635087.9440179 1.6350869.9440178-1.635087.944018z" fill="#9393ac" opacity=".998204" stroke-width=".749341"/></g></svg>