<?xml version="1.0" encoding="UTF-8" standalone="no"?>
<svg xmlns:dc="http://purl.org/dc/elements/1.1/" xmlns:cc="http://creativecommons.org/ns#" xmlns:rdf="http://www.w3.org/1999/02/22-rdf-syntax-ns#" xmlns:svg="http://www.w3.org/2000/svg" xmlns="http://www.w3.org/2000/svg" xmlns:sodipodi="http://sodipodi.sourceforge.net/DTD/sodipodi-0.dtd" xmlns:inkscape="http://www.inkscape.org/namespaces/inkscape" width="512" height="512" viewBox="0 0 135.46666 135.46667" version="1.1" id="svg6611" inkscape:version="1.0.2 (e86c870879, 2021-01-15, custom)" sodipodi:docname="Icon.svg">
  <defs id="defs6605"/>
  <sodipodi:namedview id="base" pagecolor="#ffffff" bordercolor="#666666" borderopacity="1.0" inkscape:pageopacity="0.0" inkscape:pageshadow="2" inkscape:zoom="0.24748737" inkscape:cx="-71.420502" inkscape:cy="456.7032" inkscape:document-units="px" inkscape:current-layer="layer1" inkscape:document-rotation="0" showgrid="false" units="px" inkscape:window-width="1840" inkscape:window-height="973" inkscape:window-x="35" inkscape:window-y="62" inkscape:window-maximized="0"/>
  <metadata id="metadata6608">
    <rdf:RDF>
      <cc:Work rdf:about="">
        <dc:format>image/svg+xml</dc:format>
        <dc:type rdf:resource="http://purl.org/dc/dcmitype/StillImage"/>
        <dc:title/>
      </cc:Work>
    </rdf:RDF>
  </metadata>
  <g inkscape:label="Layer 1" inkscape:groupmode="layer" id="layer1">
    <g id="g7210" transform="matrix(0.44268664,0,0,0.44268664,51.335483,37.614838)">
      <path id="path1590" style="opacity:0.998204;fill:#1c1c24;fill-opacity:1;stroke:none;stroke-width:0.532077;stroke-miterlimit:4;stroke-dasharray:none;stroke-opacity:1" d="m -65.06995,-84.969416 a 51.001667,51.001667 0 0 0 -50.89353,51.002056 V 68.035714 170.0393 a 51.001667,51.001667 0 0 0 51.00206,51.00154 51.001667,51.001667 0 0 0 0.1085,0 h 101.89456 0.10854 101.89506 a 51.001667,51.001667 0 0 0 51.00154,-51.00154 51.001667,51.001667 0 0 0 0,-0.10852 V 68.035714 a 51.001667,51.001667 0 0 0 0,-0.108519 V -33.96736 A 51.001667,51.001667 0 0 0 139.04524,-84.969416 H 138.93672 37.04164 36.93314 -64.96142 a 51.001667,51.001667 0 0 0 -0.10853,0 z"/>
      <path id="rect1661" style="opacity:0.998204;fill:#b7b7c8;fill-opacity:1;stroke:none;stroke-width:0.532077;stroke-miterlimit:4;stroke-dasharray:none;stroke-opacity:1" d="m 37.041393,-34.356984 c -10.565738,0 -19.071695,8.691078 -19.071695,19.486665 V 49.13146 h -3.96875 V 10.763258 c 0,-10.56575893 -8.5059309,-19.0717035 -19.0716958,-19.0717035 -10.5657652,0 -19.0717222,8.50594457 -19.0717222,19.0717035 V 49.13146 h -3.96875 v -1.513605 c 0,-10.565759 -8.50593,-19.071703 -19.071695,-19.071703 -10.565765,0 -19.071696,8.505944 -19.071696,19.071703 v 1.513605 h -10.713058 c -9.89211,0 -17.85575,7.96363 -17.85575,17.855755 v 2.096513 c 0,9.892125 7.96364,17.856274 17.85575,17.856274 h 10.713058 v 1.513605 c 0,10.565757 8.505931,19.071703 19.071696,19.071703 10.565765,0 19.071695,-8.505946 19.071695,-19.071703 v -1.513605 h 3.96875 V 125.3082 c 0,10.56576 8.505957,19.07171 19.0717222,19.07171 10.5657649,0 19.0716958,-8.50595 19.0716958,-19.07171 V 86.940002 h 3.96875 v 64.001778 c 0,10.79559 8.505957,19.48667 19.071695,19.48667 10.565771,0 19.071714,-8.69108 19.071714,-19.48667 V 86.940002 h 3.969266 v 33.362308 c 0,10.56576 8.505947,19.0717 19.071707,19.0717 10.565756,0 19.071703,-8.50594 19.071703,-19.0717 V 86.940002 h 3.968747 v 61.749208 c 0,10.56575 8.50595,19.0717 19.07171,19.0717 10.56576,0 19.0717,-8.50595 19.0717,-19.0717 V 86.940002 h 10.71304 c 9.89213,0 17.85576,-7.964149 17.85576,-17.856274 v -2.096513 c 0,-9.892125 -7.96363,-17.855755 -17.85576,-17.855755 h -10.71304 v -61.749203 c 0,-10.565759 -8.50594,-19.071704 -19.0717,-19.071704 -10.56576,0 -19.07171,8.505945 -19.07171,19.071704 V 49.13146 H 98.225783 V 15.769154 c 0,-10.565759 -8.505947,-19.0717037 -19.071703,-19.0717037 -10.56576,0 -19.071707,8.5059447 -19.071707,19.0717037 V 49.13146 h -3.969266 v -64.001779 c 0,-10.795587 -8.505943,-19.486665 -19.071714,-19.486665 z"/>
      <text xml:space="preserve" style="font-style:normal;font-variant:normal;font-weight:normal;font-stretch:normal;font-size:93.1947px;line-height:1.25;font-family:'Monofur Nerd Font Mono';-inkscape-font-specification:'Monofur Nerd Font Mono, Normal';font-variant-ligatures:normal;font-variant-caps:normal;font-variant-numeric:normal;font-variant-east-asian:normal;fill:#9393ac;fill-opacity:1;stroke:none;stroke-width:2.32987" x="-105.64652" y="-13.493643" id="text1719"><tspan sodipodi:role="line" id="tspan1717" x="-105.64652" y="-13.493643" style="font-style:normal;font-variant:normal;font-weight:normal;font-stretch:normal;font-size:93.1947px;font-family:'Monofur Nerd Font Mono';-inkscape-font-specification:'Monofur Nerd Font Mono, Normal';font-variant-ligatures:normal;font-variant-caps:normal;font-variant-numeric:normal;font-variant-east-asian:normal;fill:#9393ac;stroke-width:2.32987">GO</tspan></text>
    </g>
  </g>
</svg>