<?xml version="1.0" encoding="UTF-8" standalone="no"?>
<svg
   xmlns:dc="http://purl.org/dc/elements/1.1/"
   xmlns:cc="http://creativecommons.org/ns#"
   xmlns:rdf="http://www.w3.org/1999/02/22-rdf-syntax-ns#"
   xmlns:svg="http://www.w3.org/2000/svg"
   xmlns="http://www.w3.org/2000/svg"
   xmlns:sodipodi="http://sodipodi.sourceforge.net/DTD/sodipodi-0.dtd"
   xmlns:inkscape="http://www.inkscape.org/namespaces/inkscape"
   width="30"
   height="30"
   viewBox="0 0 7.9374991 7.9375002"
   version="1.1"
   id="svg8"
   inkscape:version="1.0.2 (e86c870879, 2021-01-15, custom)"
   sodipodi:docname="Pause_Active.svg">
  <defs
     id="defs2" />
  <sodipodi:namedview
     id="base"
     pagecolor="#ffffff"
     bordercolor="#666666"
     borderopacity="1.0"
     inkscape:pageopacity="0.0"
     inkscape:pageshadow="2"
     inkscape:zoom="15.839192"
     inkscape:cx="0.74427644"
     inkscape:cy="21.279772"
     inkscape:document-units="px"
     inkscape:current-layer="layer1"
     inkscape:document-rotation="0"
     showgrid="false"
     units="px"
     inkscape:snap-bbox="false"
     inkscape:snap-bbox-edge-midpoints="true"
     inkscape:bbox-paths="true"
     inkscape:bbox-nodes="true"
     inkscape:snap-bbox-midpoints="true"
     showguides="false"
     inkscape:window-width="1840"
     inkscape:window-height="973"
     inkscape:window-x="35"
     inkscape:window-y="62"
     inkscape:window-maximized="0"
     inkscape:snap-global="true" />
  <metadata
     id="metadata5">
    <rdf:RDF>
      <cc:Work
         rdf:about="">
        <dc:format>image/svg+xml</dc:format>
        <dc:type
           rdf:resource="http://purl.org/dc/dcmitype/StillImage" />
        <dc:title></dc:title>
      </cc:Work>
    </rdf:RDF>
  </metadata>
  <g
     inkscape:label="Layer 1"
     inkscape:groupmode="layer"
     id="layer1">
    <path
       id="path901"
       style="opacity:0.998204;fill:none;stroke:#111115;stroke-width:0.916916;stroke-opacity:1"
       d="M 1.6285682,0.45845918 A 1.1700987,1.1700987 0 0 0 0.45845587,1.6285417 V 3.9687663 6.308961 A 1.1700987,1.1700987 0 0 0 1.6285682,7.4790435 h 2.3401947 0.0051 2.335091 a 1.1700987,1.1700987 0 0 0 1.1700824,-1.1700825 1.1700987,1.1700987 0 0 0 0,-0.00513 V 3.96877 a 1.1700987,1.1700987 0 0 0 0,-0.00513 V 1.6285417 A 1.1700987,1.1700987 0 0 0 6.3089577,0.45845918 h -0.00513 -2.335061 -0.00513 -2.3299571 a 1.1700987,1.1700987 0 0 0 -0.0051,0 z" />
    <g
       id="g863">
      <rect
         style="opacity:0.998204;fill:#111115;stroke:none;stroke-width:6.53448"
         id="rect849"
         width="1.1218165"
         height="4.0852094"
         x="2.1854715"
         y="1.9261453"
         ry="0.50270116" />
      <rect
         style="opacity:0.998204;fill:#111115;stroke:none;stroke-width:6.53448"
         id="rect859"
         width="1.1218165"
         height="4.0852094"
         x="4.6302085"
         y="1.9261453"
         ry="0.50270116" />
    </g>
  </g>
</svg>
