<?xml version="1.0" encoding="UTF-8" standalone="no"?>
<!-- Created with Inkscape (http://www.inkscape.org/) -->

<svg
   width="1280"
   height="720"
   viewBox="0 0 1280 720"
   version="1.1"
   id="svg5"
   xml:space="preserve"
   inkscape:version="1.2 (dc2aedaf03, 2022-05-15)"
   sodipodi:docname="Splash.svg"
   inkscape:export-filename="Splash.png"
   inkscape:export-xdpi="96"
   inkscape:export-ydpi="96"
   xmlns:inkscape="http://www.inkscape.org/namespaces/inkscape"
   xmlns:sodipodi="http://sodipodi.sourceforge.net/DTD/sodipodi-0.dtd"
   xmlns="http://www.w3.org/2000/svg"
   xmlns:svg="http://www.w3.org/2000/svg"><sodipodi:namedview
     id="namedview7"
     pagecolor="#1c1c24"
     bordercolor="#000000"
     borderopacity="0.25"
     inkscape:showpageshadow="2"
     inkscape:pageopacity="0"
     inkscape:pagecheckerboard="0"
     inkscape:deskcolor="#1c1c24"
     inkscape:document-units="px"
     showgrid="false"
     inkscape:zoom="0.60145508"
     inkscape:cx="274.3347"
     inkscape:cy="443.92343"
     inkscape:window-width="1920"
     inkscape:window-height="1007"
     inkscape:window-x="0"
     inkscape:window-y="0"
     inkscape:window-maximized="1"
     inkscape:current-layer="layer1" /><defs
     id="defs2" /><g
     inkscape:label="Layer 1"
     inkscape:groupmode="layer"
     id="layer1"><g
       id="g4030"
       transform="matrix(0.49779719,0,0,0.49779719,959.73794,223.12194)"><g
         id="g3136"
         transform="translate(-899.38003)"><g
           id="g6559"><path
             id="path264"
             style="fill:none;stroke:#b7b7c8;stroke-width:8;stroke-dasharray:none"
             d="m 219.92074,59.383876 c -15.35817,3.41427 -30.5512,8.168527 -44.79492,15.33789 0.32575,12.577303 1.13879,24.628139 2.78711,36.869144 -5.53161,3.54396 -11.34508,6.58567 -16.51172,10.73437 -5.2496,4.03861 -10.61179,7.90173 -15.36524,12.625 -9.49631,-6.28111 -19.54794,-12.1822 -29.90234,-17.39258 -11.16123,12.01178 -21.595965,24.97675 -30.121085,39.48438 6.69984,10.51681 13.88586,21.0868 20.541005,29.33008 v 71.65429 9.10156 8.28125 c 0.16287,10e-4 0.32496,0.009 0.48633,0.0234 l 54.58789,5.26367 c 2.8593,0.27597 5.09976,2.57608 5.29883,5.44141 l 1.68359,24.0957 47.61524,3.39844 3.27929,-22.24023 c 0.42528,-2.88344 2.8998,-5.01953 5.81641,-5.01953 h 57.58984 c 2.91511,0 5.38722,2.13609 5.8125,5.01953 l 3.28125,22.24023 47.61719,-3.39844 1.68164,-24.0957 c 0.20058,-2.86533 2.43952,-5.16393 5.29883,-5.44141 l 54.56445,-5.26367 c 0.16137,-0.0151 0.32346,-0.0219 0.48633,-0.0234 v -7.10351 l 0.0215,-0.008 v -81.92578 c 7.68651,-9.67649 14.96647,-20.34984 20.54297,-29.33008 -8.52211,-14.50763 -18.96378,-27.4726 -30.125,-39.48438 -10.35139,5.21038 -20.40603,11.11147 -29.90235,17.39258 -4.75192,-4.72327 -10.1042,-8.58639 -15.36133,-12.625 -5.16514,-4.1487 -10.98676,-7.19041 -16.50781,-10.73437 1.6438,-12.241005 2.45595,-24.291841 2.7832,-36.869144 -14.24522,-7.169363 -29.43505,-11.92362 -44.80078,-15.33789 -6.13483,10.310673 -11.74471,21.477169 -16.63086,32.392578 -5.794,-0.968181 -11.61467,-1.327114 -17.44336,-1.396484 v -0.0098 c -0.0407,0 -0.0786,0.0098 -0.11328,0.0098 -0.0362,0 -0.0751,-0.0098 -0.11133,-0.0098 v 0.0098 c -5.83924,0.06937 -11.65565,0.428303 -17.45117,1.396484 C 231.67043,80.861045 226.06462,69.694549 219.92074,59.383876 Z M 176.73519,189.63583 c 18.16922,0 32.89649,14.71571 32.89649,32.8789 0,18.17526 -14.72727,32.89844 -32.89649,32.89844 -18.16017,0 -32.89062,-14.72318 -32.89062,-32.89844 0,-18.16319 14.73045,-32.8789 32.89062,-32.8789 z m 154.76172,0 c 18.15866,0 32.88867,14.71571 32.88867,32.8789 0,18.17526 -14.73001,32.89844 -32.88867,32.89844 -18.17224,0 -32.89844,-14.72318 -32.89844,-32.89844 0,-18.16319 14.7262,-32.8789 32.89844,-32.8789 z m -77.38476,19.24023 c 5.84829,0 10.59961,4.31464 10.59961,9.62305 v 30.28516 c 0,5.31293 -4.75132,9.62304 -10.59961,9.62304 -5.8483,0 -10.58789,-4.31011 -10.58789,-9.62304 v -30.28516 c 0,-5.30841 4.73959,-9.62305 10.58789,-9.62305 z" /><path
             d="m 352.68323,291.91958 -1.69055,24.22415 c -0.20359,2.91963 -2.52602,5.24356 -5.44564,5.45319 l -58.14369,4.1487 c -0.14176,0.0106 -0.28352,0.0151 -0.42377,0.0151 -2.88947,0 -5.38231,-2.12035 -5.80909,-5.02188 l -3.33435,-22.61202 h -47.44241 l -3.33435,22.61202 c -0.44789,3.04329 -3.16846,5.2315 -6.23286,5.0068 l -58.14369,-4.1487 c -2.91962,-0.20963 -5.24205,-2.53356 -5.44564,-5.45319 l -1.69055,-24.22415 -49.0832,-4.73233 c 0.0226,5.27524 0.0905,11.05416 0.0905,12.20482 0,51.83845 65.75945,76.7548 147.46072,77.04133 h 0.0995 0.10104 c 81.70127,-0.28653 147.4381,-25.20288 147.4381,-77.04133 0,-1.17177 0.0709,-6.92657 0.095,-12.20482 z"
             fill="#478cbf"
             id="path266"
             style="fill:none;stroke:#b7b7c8;stroke-width:8;stroke-dasharray:none" /></g><g
           id="g6634"
           transform="translate(4.3188709)"><rect
             style="fill:#6f6f91;fill-opacity:1;stroke:none;stroke-width:7.18081;stroke-dasharray:none"
             id="rect6476"
             width="46.553768"
             height="141.32393"
             x="64.011459"
             y="141.32393"
             ry="15.172965" /><rect
             style="fill:#6f6f91;fill-opacity:1;stroke:none;stroke-width:7.18081;stroke-dasharray:none"
             id="rect6630"
             width="46.553768"
             height="141.32393"
             x="389.01099"
             y="141.32393"
             ry="15.172965" /></g><path
           style="fill:none;fill-opacity:1;stroke:#6f6f91;stroke-width:35.1389;stroke-dasharray:none;stroke-opacity:1"
           id="path6555"
           sodipodi:type="arc"
           sodipodi:cx="254.10698"
           sodipodi:cy="217.64227"
           sodipodi:rx="163.17302"
           sodipodi:ry="163.17302"
           sodipodi:start="3.2158447"
           sodipodi:end="6.2657965"
           sodipodi:arc-type="arc"
           d="M 91.38357,205.53747 A 163.17302,163.17302 0 0 1 258.74563,54.5352 163.17302,163.17302 0 0 1 417.25533,214.80503"
           sodipodi:open="true" /></g><text
         xml:space="preserve"
         style="font-style:normal;font-variant:normal;font-weight:normal;font-stretch:normal;font-size:96.6535px;font-family:'mononoki Nerd Font Mono';-inkscape-font-specification:'mononoki Nerd Font Mono, Normal';font-variant-ligatures:normal;font-variant-caps:normal;font-variant-numeric:normal;font-variant-east-asian:normal;fill:#dbdbe3;stroke:none;stroke-width:2;stroke-dasharray:none"
         x="-1004.8448"
         y="507.91806"
         id="text294"><tspan
           sodipodi:role="line"
           id="tspan292"
           x="-1004.8448"
           y="507.91806">Godot Powered</tspan></text></g></g></svg>
